<svg width="268" height="262" viewBox="0 0 268 262" fill="none" xmlns="http://www.w3.org/2000/svg">
<g id="blob_group" clip-path="url(#clip0)">
<path id="gradient2" d="M139.859 14.1676C170.85 11.268 202.391 -7.15921 216.708 3.4512C231.14 14.2467 228.348 54.0798 228.418 82.0869C228.373 109.909 231.006 126.02 241.582 147.461C251.973 169.018 270.191 195.719 266.186 213.92C262.065 231.937 235.79 241.154 212.394 248.828C188.883 256.317 168.505 261.848 148.417 261.278C128.629 260.779 109.014 253.995 86.7472 247.066C64.4803 240.138 39.261 232.997 26.5492 216.751C14.0218 200.39 13.8176 175.04 9.50473 147.626C5.00761 120.327 -3.6668 91.2636 2.19278 64.9545C7.86806 38.7606 28.0086 15.6211 53.2758 10.1227C78.4743 4.92448 108.984 17.2522 139.859 14.1676Z" fill="url(#paint0_linear)"/>
<path id="gradient1" d="M165.53 11.1474C182.298 12.4337 197.598 25.2972 216.462 41.5908C235.326 57.8845 257.962 77.8229 265.298 102.049C272.634 126.275 264.46 154.789 247.692 174.942C230.924 195.095 205.354 206.886 181.25 221.465C157.146 236.258 134.3 254.052 118.371 242.046C102.232 230.255 93.0097 188.877 81.0627 166.795C69.3253 144.927 55.0727 142.14 39.5626 133.993C23.8429 125.632 6.65593 111.697 1.62561 94.7597C-3.40471 77.8229 3.51198 57.8845 18.6029 48.6657C33.6939 39.2325 56.9591 40.5189 73.7268 39.2326C90.7042 37.9462 101.184 34.0872 115.646 27.0123C130.108 19.9374 148.553 9.64664 165.53 11.1474Z" fill="url(#paint1_linear)"/>
</g>
<defs>
<linearGradient id="paint0_linear" x1="52.3304" y1="31.5102" x2="282.242" y2="278.704" gradientUnits="userSpaceOnUse">
<stop stop-color="#BFE6EF" stop-opacity="0.506665"/>
<stop offset="1" stop-color="#E1DAFB" stop-opacity="0.544526"/>
</linearGradient>
<linearGradient id="paint1_linear" x1="93.3923" y1="81.572" x2="141.544" y2="204.443" gradientUnits="userSpaceOnUse">
<stop stop-color="#DBEAFF"/>
<stop offset="1" stop-color="#BFE6EF" stop-opacity="0.427611"/>
</linearGradient>
<clipPath id="clip0">
<rect width="268" height="262" fill="white"/>
</clipPath>
</defs>
</svg>
