<svg width="268" height="262" viewBox="0 0 268 262" fill="none" xmlns="http://www.w3.org/2000/svg">
<g id="blobs_group" clip-path="url(#clip0)">
<path id="gradient2" d="M139.859 14.1676C170.85 11.268 202.391 -7.15921 216.708 3.4512C231.14 14.2467 228.348 54.0798 228.418 82.0869C228.373 109.909 231.006 126.02 241.582 147.461C251.973 169.018 270.191 195.719 266.186 213.92C262.065 231.937 235.79 241.154 212.394 248.828C188.883 256.317 168.505 261.848 148.417 261.278C128.629 260.779 109.014 253.995 86.7472 247.066C64.4803 240.138 39.261 232.997 26.5492 216.751C14.0218 200.39 13.8176 175.04 9.50473 147.626C5.00761 120.327 -3.6668 91.2636 2.19278 64.9545C7.86806 38.7606 28.0086 15.6211 53.2758 10.1227C78.4743 4.92448 108.984 17.2522 139.859 14.1676Z" fill="url(#paint0_linear)"/>
<path id="gradient1" d="M165.53 13.1474C182.298 14.4337 197.598 27.2972 216.462 43.5908C235.326 59.8845 257.962 79.8229 265.298 104.049C272.634 128.275 264.46 156.789 247.692 176.942C230.924 197.095 205.354 208.886 181.25 223.465C157.146 238.258 134.3 256.052 118.371 244.046C102.232 232.255 93.0097 190.877 81.0627 168.795C69.3253 146.927 55.0727 144.14 39.5626 135.993C23.8429 127.632 6.65593 113.697 1.62561 96.7597C-3.40471 79.8229 3.51198 59.8845 18.6029 50.6657C33.6939 41.2325 56.9591 42.5189 73.7268 41.2326C90.7042 39.9462 101.184 36.0872 115.646 29.0123C130.108 21.9374 148.553 11.6466 165.53 13.1474Z" fill="url(#paint1_linear)"/>
</g>
<defs>
<linearGradient id="paint0_linear" x1="43.5" y1="2.99999" x2="203.595" y2="237.845" gradientUnits="userSpaceOnUse">
<stop stop-color="#C8EFF8"/>
<stop offset="1" stop-color="#C8EBFF"/>
</linearGradient>
<linearGradient id="paint1_linear" x1="115" y1="114.5" x2="176.093" y2="220.498" gradientUnits="userSpaceOnUse">
<stop stop-color="#C8EBFF"/>
<stop offset="1" stop-color="#D3F2F9"/>
</linearGradient>
<clipPath id="clip0">
<rect width="268" height="262" fill="white"/>
</clipPath>
</defs>
</svg>
