<svg width="194" height="187" viewBox="0 0 194 187" fill="none" xmlns="http://www.w3.org/2000/svg">
<g id="blob">
<path id="blob3" d="M148.902 59.869C158.302 70.469 159.302 88.269 164.202 106.769C169.102 125.169 177.702 144.369 170.702 152.369C163.702 160.469 140.902 157.469 123.102 160.669C105.302 163.869 92.5022 173.369 84.2022 170.369C75.9022 167.469 72.0022 152.069 63.5022 138.769C55.0022 125.369 41.8022 113.969 42.0022 103.569C42.1022 93.169 55.6022 83.669 68.1022 73.569C80.7022 63.569 92.4022 52.969 107.102 49.369C121.802 45.769 139.502 49.269 148.902 59.869Z" fill="#BFE6EF"/>
<path id="blob2" d="M146.506 60.874C158.706 70.474 170.306 80.374 172.406 92.074C174.606 103.874 167.306 117.374 163.006 132.374C158.806 147.374 157.506 163.874 148.906 172.574C140.306 181.274 124.306 182.274 111.006 178.474C97.8061 174.674 87.3061 166.174 77.6061 157.774C67.9061 149.374 59.1061 141.174 56.2061 131.374C53.3061 121.474 56.4061 109.874 57.5061 94.974C58.7061 80.174 57.9061 61.974 66.1061 50.974C74.2061 39.974 91.3061 36.074 106.306 38.874C121.306 41.674 134.206 51.174 146.506 60.874Z" fill="#BAE6FF"/>
<path id="blob1" d="M153.6 34.8C168.1 36.8 177.8 54.2 183.3 72.6C188.7 91 190.1 110.4 184.9 127.9C179.6 145.4 167.7 161.2 152.5 165.5C137.2 169.9 118.6 162.9 103.2 158.5C87.9002 154 75.7002 152.1 63.9002 146.6C52.1002 141.1 40.6002 132.1 40.5002 121.7C40.4002 111.3 51.7002 99.6 58.3002 88.7C65.0002 77.8 67.0002 67.6 73.2002 62.9C79.4002 58.1 89.7002 58.8 104.6 52.4C119.5 46.1 139 32.8 153.6 34.8Z" fill="#BFE6EE"/>
</g>
</svg>
