<?xml version="1.0" encoding="UTF-8"?>
<svg width="349px" height="286px" viewBox="0 0 349 286" version="1.1" xmlns="http://www.w3.org/2000/svg" xmlns:xlink="http://www.w3.org/1999/xlink">
    <title>bubble</title>
    <g id="profile-website-design" stroke="none" stroke-width="1" fill="none" fill-rule="evenodd">
        <g id="Artboard" transform="translate(-922.000000, -31.000000)">
            <g id="bubble" transform="translate(1096.500000, 173.935823) rotate(-2.000000) translate(-1096.500000, -173.935823) translate(927.000000, 37.435823)">
                <g id="Group" transform="translate(64.379074, 0.000000)">
                    <path d="M73.8543939,6.53871002 C54.955983,14.9465952 41.7460947,22.0372634 34.224729,27.8107148 C26.7033633,33.5841662 18.9898452,43.9032283 11.0841746,58.7679012 C9.23410769,56.4595097 6.16440931,66.6434535 1.87507948,89.3197328 C-2.41425035,111.996012 0.655448029,132.592817 11.0841746,151.110146 C33.841529,189.930283 55.6985699,216.932619 76.6552974,232.117155 C108.090389,254.89396 122.390765,267.15545 146.180471,270.681921 C169.970177,274.208392 171.82941,274.208392 201.150114,264.034492 C230.470817,253.860592 240.0485,241.310429 253.786571,219.650202 C267.524642,197.989975 267.524642,204.237156 271.669848,171.110146 C275.815055,137.983136 272.586572,134.376874 261.377488,101.80819 C250.168405,69.2395067 247.667028,66.0697394 225.132468,43.075345 C202.597909,20.0809506 181.017904,15.5621868 159.980674,8.43506218 C138.943444,1.30793761 138.943444,1.30793761 118.717154,0.153327766 C105.232961,-0.61641213 90.2787074,1.51204862 73.8543939,6.53871002 Z" id="Path-19" fill="#FFDD72"></path>
                    <text id="Wanna-Cook-together" transform="translate(137.620926, 121.564177) rotate(2.000000) translate(-137.620926, -121.564177) " font-family="Chalkduster" font-size="32" font-weight="normal" fill="#FFFFFF">
                        <tspan x="62.6209256" y="88.5641766">  Wanna</tspan>
                        <tspan x="62.6209256" y="136.564177">Cook </tspan>
                        <tspan x="62.6209256" y="184.564177">together </tspan>
                    </text>
                </g>
                <g id="Group-13" transform="translate(0.000000, 120.564177)" fill="#FBCF46">
                    <path d="M38.7083575,0.0225283984 C31.0163132,0.54237577 25.9935898,5.43815919 25.1157401,13.2194702 C24.2378904,21.0007813 28.4231624,26.1626278 35.3085406,30.1587044 C42.1939189,34.1547809 48.378182,35.1062488 54.3026274,30.1587044 C58.2522576,26.8603414 59.5767176,20.4669124 58.2760074,10.9784174 C50.358937,3.32792648 43.836387,-0.324036516 38.7083575,0.0225283984 Z" id="Path-18"></path>
                    <path d="M8.12121858,24.013441 C3.56423406,24.3235939 0.588630694,27.2445316 0.0685677233,31.8870418 C-0.451495247,36.529552 2.02797817,39.6092291 6.10707095,41.9933808 C10.1861637,44.3775325 13.849896,44.9452002 17.359705,41.9933808 C19.6995776,40.0255011 20.4842252,36.2110335 19.7136477,30.5499778 C15.0233513,25.9855179 11.1592083,23.8066723 8.12121858,24.013441 Z" id="Path-18"></path>
                </g>
                <text id="?" transform="translate(289.580233, 174.484239) rotate(23.000000) translate(-289.580233, -174.484239) " font-family="Chalkduster" font-size="32" font-weight="normal" fill="#FFFFFF">
                    <tspan x="281.580233" y="189.484239">?</tspan>
                </text>
            </g>
        </g>
    </g>
</svg>