<svg width="362" height="439" viewBox="0 0 362 439" fill="none" xmlns="http://www.w3.org/2000/svg">
<path d="M185.683 390.357H64.5406C61.2429 390.353 58.0813 389.042 55.7494 386.71C53.4175 384.378 52.1057 381.216 52.1019 377.918V183.071C52.1057 179.774 53.4175 176.612 55.7494 174.28C58.0813 171.948 61.2429 170.637 64.5406 170.633H185.683V390.357ZM64.5406 172.633C61.7731 172.636 59.1198 173.737 57.1628 175.694C55.2059 177.65 54.1051 180.304 54.1019 183.071V377.918C54.1051 380.686 55.2059 383.339 57.1628 385.296C59.1198 387.253 61.7731 388.354 64.5406 388.357H183.683V172.633H64.5406Z" fill="#A487D8"/>
<path d="M182.551 170.633H303.694C306.992 170.637 310.153 171.948 312.485 174.28C314.817 176.612 316.129 179.774 316.133 183.071V377.918C316.129 381.216 314.817 384.378 312.485 386.71C310.153 389.042 306.992 390.353 303.694 390.357H182.551V170.633Z" fill="#E8C9ED"/>
<path d="M95.4388 120.173H94.0714V183.755H95.4388V120.173Z" fill="#9A7DD5" fill-opacity="0.9"/>
<path d="M95.1643 121.541C92.3247 121.541 89.5489 120.699 87.1879 119.121C84.8269 117.544 82.9867 115.301 81.9 112.678C80.8134 110.054 80.529 107.168 81.083 104.383C81.637 101.598 83.0044 99.0395 85.0123 97.0316C87.0201 95.0237 89.5783 93.6563 92.3633 93.1023C95.1484 92.5484 98.0351 92.8327 100.659 93.9194C103.282 95.006 105.524 96.8462 107.102 99.2072C108.679 101.568 109.521 104.344 109.521 107.184C109.521 110.991 108.009 114.643 105.316 117.336C102.624 120.028 98.972 121.541 95.1643 121.541ZM95.1643 94.1938C92.5952 94.1938 90.0837 94.9557 87.9476 96.383C85.8114 97.8104 84.1464 99.8391 83.1633 102.213C82.1801 104.586 81.9229 107.198 82.4241 109.718C82.9253 112.238 84.1625 114.552 85.9791 116.369C87.7958 118.185 90.1103 119.423 92.6301 119.924C95.1499 120.425 97.7617 120.168 100.135 119.185C102.509 118.201 104.538 116.537 105.965 114.4C107.392 112.264 108.154 109.753 108.154 107.184C108.154 103.739 106.786 100.435 104.349 97.9985C101.913 95.5624 98.6094 94.1938 95.1643 94.1938V94.1938Z" fill="#A285D7"/>
<path d="M235.337 34.7143H233.969V181.704H235.337V34.7143Z" fill="#9A7DD5" fill-opacity="0.9"/>
<path d="M235.062 34.7143C232.223 34.7143 229.447 33.8723 227.086 32.2947C224.725 30.7171 222.885 28.4748 221.798 25.8514C220.711 23.228 220.427 20.3412 220.981 17.5562C221.535 14.7712 222.902 12.213 224.91 10.2051C226.918 8.19724 229.476 6.82985 232.261 6.27588C235.046 5.7219 237.933 6.00622 240.557 7.09288C243.18 8.17953 245.422 10.0197 247 12.3807C248.577 14.7418 249.419 17.5176 249.419 20.3572C249.419 24.1649 247.907 27.8167 245.214 30.5092C242.522 33.2017 238.87 34.7143 235.062 34.7143V34.7143ZM235.062 7.36737C232.493 7.36737 229.982 8.12919 227.846 9.55653C225.709 10.9839 224.044 13.0126 223.061 15.3862C222.078 17.7598 221.821 20.3716 222.322 22.8913C222.823 25.4111 224.06 27.7257 225.877 29.5423C227.694 31.359 230.008 32.5961 232.528 33.0974C235.048 33.5986 237.66 33.3413 240.033 32.3582C242.407 31.375 244.436 29.7101 245.863 27.5739C247.29 25.4377 248.052 22.9263 248.052 20.3572C248.052 16.9121 246.683 13.6081 244.247 11.172C241.811 8.73594 238.507 7.36737 235.062 7.36737V7.36737Z" fill="#9A7DD5" fill-opacity="0.9"/>
<path d="M184.184 327.059C172.106 327.059 160.523 322.262 151.983 313.721C143.442 305.181 138.645 293.598 138.645 281.52C138.645 269.443 143.442 257.86 151.983 249.319C160.523 240.779 172.106 235.981 184.184 235.981V327.059Z" fill="#EDCFCF"/>
<path d="M184.184 235.981C196.261 235.981 207.844 240.779 216.385 249.319C224.925 257.86 229.723 269.443 229.723 281.52C229.723 293.598 224.925 305.181 216.385 313.721C207.844 322.262 196.261 327.059 184.184 327.059V235.981Z" fill="white"/>
<path d="M342.112 416H27.6224C24.541 415.997 21.5868 414.771 19.408 412.592C17.2291 410.413 16.0035 407.459 16 404.378V155.929C16.0035 152.847 17.2291 149.893 19.408 147.714C21.5868 145.535 24.541 144.31 27.6224 144.306H342.112C345.194 144.31 348.148 145.535 350.327 147.714C352.506 149.893 353.731 152.847 353.735 155.929V404.378C353.731 407.459 352.506 410.413 350.327 412.592C348.148 414.771 345.194 415.997 342.112 416V416ZM27.6224 145.673C24.9036 145.677 22.2969 146.758 20.3744 148.681C18.4519 150.603 17.3704 153.21 17.3673 155.929V404.378C17.3704 407.096 18.4519 409.703 20.3744 411.626C22.2969 413.548 24.9036 414.63 27.6224 414.633H342.112C344.831 414.63 347.438 413.548 349.36 411.626C351.283 409.703 352.364 407.096 352.367 404.378V155.929C352.364 153.21 351.283 150.603 349.36 148.681C347.438 146.758 344.831 145.677 342.112 145.673H27.6224Z" fill="#A285D7"/>
<path d="M165.367 65H164V239.755H165.367V65Z" fill="#A285D7"/>
<path d="M164.164 80.5408C161.325 80.5408 158.549 79.6988 156.188 78.1212C153.827 76.5436 151.987 74.3013 150.9 71.6779C149.813 69.0545 149.529 66.1677 150.083 63.3827C150.637 60.5977 152.004 58.0395 154.012 56.0316C156.02 54.0237 158.578 52.6563 161.363 52.1023C164.148 51.5484 167.035 51.8327 169.659 52.9194C172.282 54.006 174.524 55.8462 176.102 58.2072C177.679 60.5683 178.521 63.3441 178.521 66.1836C178.521 69.9914 177.009 73.6432 174.316 76.3357C171.624 79.0282 167.972 80.5408 164.164 80.5408V80.5408ZM164.164 53.1938C161.595 53.1938 159.084 53.9557 156.948 55.383C154.811 56.8104 153.146 58.8391 152.163 61.2127C151.18 63.5862 150.923 66.1981 151.424 68.7178C151.925 71.2376 153.162 73.5522 154.979 75.3688C156.796 77.1855 159.11 78.4226 161.63 78.9239C164.15 79.4251 166.762 79.1678 169.135 78.1847C171.509 77.2015 173.538 75.5366 174.965 73.4004C176.392 71.2642 177.154 68.7528 177.154 66.1836C177.154 62.7385 175.786 59.4345 173.349 56.9985C170.913 54.5624 167.609 53.1938 164.164 53.1938Z" fill="#7261C4"/>
<path d="M75 379C79.9706 379 84 374.971 84 370C84 365.029 79.9706 361 75 361C70.0294 361 66 365.029 66 370C66 374.971 70.0294 379 75 379Z" fill="#9A7DD5" fill-opacity="0.9"/>
<path d="M296 379C300.971 379 305 374.971 305 370C305 365.029 300.971 361 296 361C291.029 361 287 365.029 287 370C287 374.971 291.029 379 296 379Z" fill="white"/>
<path d="M75 200C79.9706 200 84 195.971 84 191C84 186.029 79.9706 182 75 182C70.0294 182 66 186.029 66 191C66 195.971 70.0294 200 75 200Z" fill="#A285D7"/>
<path d="M296 200C300.971 200 305 195.971 305 191C305 186.029 300.971 182 296 182C291.029 182 287 186.029 287 191C287 195.971 291.029 200 296 200Z" fill="white"/>
<path d="M91.0624 125.643C98.614 125.643 104.736 119.521 104.736 111.969C104.736 104.418 98.614 98.2959 91.0624 98.2959C83.5107 98.2959 77.3889 104.418 77.3889 111.969C77.3889 119.521 83.5107 125.643 91.0624 125.643Z" fill="white"/>
<path d="M230.96 38.8164C238.512 38.8164 244.634 32.6945 244.634 25.1429C244.634 17.5912 238.512 11.4694 230.96 11.4694C223.409 11.4694 217.287 17.5912 217.287 25.1429C217.287 32.6945 223.409 38.8164 230.96 38.8164Z" fill="#A285D7"/>
<path d="M160.062 84.6429C167.614 84.6429 173.736 78.5211 173.736 70.9694C173.736 63.4178 167.614 57.2959 160.062 57.2959C152.511 57.2959 146.389 63.4178 146.389 70.9694C146.389 78.5211 152.511 84.6429 160.062 84.6429Z" fill="#FED566"/>
</svg>
