<?xml version="1.0" encoding="UTF-8"?>
<svg width="279px" height="265px" viewBox="0 0 279 265" version="1.1" xmlns="http://www.w3.org/2000/svg" xmlns:xlink="http://www.w3.org/1999/xlink">
    <title>Group</title>
    <defs>
        <linearGradient x1="50%" y1="-48.1849699%" x2="50%" y2="100%" id="linearGradient-1">
            <stop stop-color="#FFF1AB" offset="0%"></stop>
            <stop stop-color="#FFC1B3" offset="100%"></stop>
        </linearGradient>
    </defs>
    <g id="profile-website-design" stroke="none" stroke-width="1" fill="none" fill-rule="evenodd">
        <g id="Artboard" transform="translate(-1238.000000, -285.000000)">
            <g id="Group" transform="translate(1377.143744, 417.727996) rotate(16.000000) translate(-1377.143744, -417.727996) translate(1262.643744, 313.227996)">
                <path d="M76.3562557,23.6529329 L0,52.6325648 L7.8738591,104.226698 C23.3921594,107.489421 30.1826637,115.320316 28.2453719,127.719385 C27.5583175,132.116675 22.7502375,137.397488 13.8211317,143.561824 L18.2925925,188.442217 L173.405487,208.453396 L188.41745,188.442217 C180.939462,181.856579 177.200468,175.788625 177.200468,170.238355 C177.200468,161.91295 179.37016,156.706002 186.142803,153.901841 C190.657898,152.032401 196.24539,153.930279 202.905277,159.595477 L228.860473,4.33545598 L182.713391,-4.40536496e-13 C173.369115,16.3181756 161.763101,25.6020337 147.89535,27.8515742 C134.027599,30.1011147 121.473144,24.7364179 110.231985,11.7574839 L76.3562557,23.6529329 Z" id="Path-21" fill="url(#linearGradient-1)" opacity="0.967818859"></path>
                <ellipse id="Oval" fill="#FFFFFF" cx="199.856256" cy="38.2720045" rx="18.5" ry="23.5"></ellipse>
                <path d="M95.6494543,117.615105 C109.180431,117.615105 114.631687,106.26973 114.631687,90.529615 C114.631687,74.7894997 97.2391158,58.8313004 83.7081394,58.8313004 C70.1771631,58.8313004 67.7695728,74.8905853 67.7695728,90.6307007 C67.7695728,106.370816 82.1184779,117.615105 95.6494543,117.615105 Z" id="Oval" fill="#FFFFFF" transform="translate(91.200630, 88.223203) rotate(-15.000000) translate(-91.200630, -88.223203) "></path>
                <path d="M120.03299,199.100326 C126.962755,199.100326 129.754566,193.117273 129.754566,184.816626 C129.754566,176.51598 120.84712,168.100326 113.917356,168.100326 C106.987591,168.100326 105.754566,176.569288 105.754566,184.869934 C105.754566,193.170581 113.103225,199.100326 120.03299,199.100326 Z" id="Oval" fill="#FFFFFF" transform="translate(117.754566, 183.600326) rotate(-15.000000) translate(-117.754566, -183.600326) "></path>
            </g>
        </g>
    </g>
</svg>