<svg width="354" height="460" viewBox="0 0 354 460" fill="none" xmlns="http://www.w3.org/2000/svg">
<path d="M185.183 384.357H64.0406C60.7429 384.353 57.5813 383.042 55.2494 380.71C52.9175 378.378 51.6057 375.216 51.6019 371.918V177.071C51.6057 173.774 52.9175 170.612 55.2494 168.28C57.5813 165.948 60.7429 164.637 64.0406 164.633H185.183V384.357ZM64.0406 166.633C61.2731 166.636 58.6198 167.737 56.6628 169.694C54.7059 171.65 53.6051 174.304 53.6019 177.071V371.918C53.6051 374.686 54.7059 377.339 56.6628 379.296C58.6198 381.253 61.2731 382.354 64.0406 382.357H183.183V166.633H64.0406Z" fill="#9F9BCA"/>
<path d="M182.051 164.633H303.194C306.492 164.637 309.653 165.948 311.985 168.28C314.317 170.612 315.629 173.774 315.633 177.071V371.918C315.629 375.216 314.317 378.378 311.985 380.71C309.653 383.042 306.492 384.353 303.194 384.357H182.051V164.633Z" fill="#D7C4DA"/>
<path d="M94.9388 114.173H93.5714V177.755H94.9388V114.173Z" fill="#7B78A2"/>
<path d="M94.6643 115.541C91.8247 115.541 89.0489 114.699 86.6879 113.121C84.3269 111.544 82.4867 109.301 81.4 106.678C80.3134 104.054 80.029 101.168 80.583 98.3827C81.137 95.5977 82.5044 93.0395 84.5123 91.0316C86.5201 89.0237 89.0783 87.6563 91.8633 87.1023C94.6484 86.5484 97.5351 86.8327 100.159 87.9194C102.782 89.006 105.024 90.8462 106.602 93.2072C108.179 95.5683 109.021 98.3441 109.021 101.184C109.021 104.991 107.509 108.643 104.816 111.336C102.124 114.028 98.472 115.541 94.6643 115.541ZM94.6643 88.1938C92.0952 88.1938 89.5837 88.9557 87.4476 90.383C85.3114 91.8104 83.6464 93.8391 82.6633 96.2127C81.6801 98.5862 81.4229 101.198 81.9241 103.718C82.4253 106.238 83.6625 108.552 85.4791 110.369C87.2958 112.185 89.6103 113.423 92.1301 113.924C94.6499 114.425 97.2617 114.168 99.6352 113.185C102.009 112.201 104.038 110.537 105.465 108.4C106.892 106.264 107.654 103.753 107.654 101.184C107.654 97.7385 106.286 94.4345 103.849 91.9985C101.413 89.5624 98.1094 88.1938 94.6643 88.1938V88.1938Z" fill="#2F2E41"/>
<path d="M234.837 28.7143H233.469V175.704H234.837V28.7143Z" fill="#7B78A2"/>
<path d="M234.562 28.7143C231.723 28.7143 228.947 27.8723 226.586 26.2947C224.225 24.7171 222.385 22.4748 221.298 19.8514C220.211 17.228 219.927 14.3412 220.481 11.5562C221.035 8.7712 222.402 6.213 224.41 4.20512C226.418 2.19724 228.976 0.829849 231.761 0.275876C234.546 -0.278098 237.433 0.00621891 240.057 1.09288C242.68 2.17953 244.922 4.01973 246.5 6.38075C248.077 8.74177 248.919 11.5176 248.919 14.3572C248.919 18.1649 247.407 21.8167 244.714 24.5092C242.022 27.2017 238.37 28.7143 234.562 28.7143V28.7143ZM234.562 1.36737C231.993 1.36737 229.482 2.12919 227.346 3.55653C225.209 4.98387 223.544 7.0126 222.561 9.38618C221.578 11.7598 221.321 14.3716 221.822 16.8913C222.323 19.4111 223.56 21.7257 225.377 23.5423C227.194 25.359 229.508 26.5961 232.028 27.0974C234.548 27.5986 237.16 27.3413 239.533 26.3582C241.907 25.375 243.936 23.7101 245.363 21.5739C246.79 19.4377 247.552 16.9263 247.552 14.3572C247.552 10.9121 246.184 7.60805 243.747 5.17199C241.311 2.73594 238.007 1.36737 234.562 1.36737V1.36737Z" fill="#2F2E41"/>
<path d="M183.684 321.059C171.606 321.059 160.023 316.262 151.483 307.721C142.942 299.181 138.145 287.598 138.145 275.52C138.145 263.443 142.942 251.86 151.483 243.319C160.023 234.779 171.606 229.981 183.684 229.981V321.059Z" fill="#EDCFCF"/>
<path d="M183.684 229.981C195.761 229.981 207.344 234.779 215.885 243.319C224.425 251.86 229.223 263.443 229.223 275.52C229.223 287.598 224.425 299.181 215.885 307.721C207.344 316.262 195.761 321.059 183.684 321.059V229.981Z" fill="#FEFEFE" fill-opacity="0.8"/>
<path d="M341.612 410H27.1224C24.041 409.997 21.0868 408.771 18.908 406.592C16.7291 404.413 15.5035 401.459 15.5 398.378V149.929C15.5035 146.847 16.7291 143.893 18.908 141.714C21.0868 139.535 24.041 138.31 27.1224 138.306H341.612C344.694 138.31 347.648 139.535 349.827 141.714C352.006 143.893 353.231 146.847 353.235 149.929V398.378C353.231 401.459 352.006 404.413 349.827 406.592C347.648 408.771 344.694 409.997 341.612 410V410ZM27.1224 139.673C24.4036 139.677 21.7969 140.758 19.8744 142.681C17.9519 144.603 16.8704 147.21 16.8673 149.929V398.378C16.8704 401.096 17.9519 403.703 19.8744 405.626C21.7969 407.548 24.4036 408.63 27.1224 408.633H341.612C344.331 408.63 346.938 407.548 348.86 405.626C350.783 403.703 351.864 401.096 351.867 398.378V149.929C351.864 147.21 350.783 144.603 348.86 142.681C346.938 140.758 344.331 139.677 341.612 139.673H27.1224Z" fill="#9894C2"/>
<path d="M163.939 74H162.571V248.755H163.939V74Z" fill="#7B78A2"/>
<path d="M163.664 74.5408C160.825 74.5408 158.049 73.6988 155.688 72.1212C153.327 70.5436 151.487 68.3013 150.4 65.6779C149.313 63.0545 149.029 60.1677 149.583 57.3827C150.137 54.5977 151.504 52.0395 153.512 50.0316C155.52 48.0237 158.078 46.6563 160.863 46.1023C163.648 45.5484 166.535 45.8327 169.159 46.9194C171.782 48.006 174.024 49.8462 175.602 52.2072C177.179 54.5683 178.021 57.3441 178.021 60.1836C178.021 63.9914 176.509 67.6432 173.816 70.3357C171.124 73.0282 167.472 74.5408 163.664 74.5408V74.5408ZM163.664 47.1938C161.095 47.1938 158.584 47.9557 156.448 49.383C154.311 50.8104 152.646 52.8391 151.663 55.2127C150.68 57.5862 150.423 60.1981 150.924 62.7178C151.425 65.2376 152.662 67.5522 154.479 69.3688C156.296 71.1855 158.61 72.4226 161.13 72.9239C163.65 73.4251 166.262 73.1678 168.635 72.1847C171.009 71.2015 173.038 69.5366 174.465 67.4004C175.892 65.2642 176.654 62.7528 176.654 60.1836C176.654 56.7385 175.286 53.4345 172.849 50.9985C170.413 48.5624 167.109 47.1938 163.664 47.1938Z" fill="#2F2E41"/>
<path d="M74.5 373C79.4706 373 83.5 368.971 83.5 364C83.5 359.029 79.4706 355 74.5 355C69.5294 355 65.5 359.029 65.5 364C65.5 368.971 69.5294 373 74.5 373Z" fill="#7B78A2"/>
<path d="M295.5 373C300.471 373 304.5 368.971 304.5 364C304.5 359.029 300.471 355 295.5 355C290.529 355 286.5 359.029 286.5 364C286.5 368.971 290.529 373 295.5 373Z" fill="#FEFEFE" fill-opacity="0.8"/>
<path d="M74.5 194C79.4706 194 83.5 189.971 83.5 185C83.5 180.029 79.4706 176 74.5 176C69.5294 176 65.5 180.029 65.5 185C65.5 189.971 69.5294 194 74.5 194Z" fill="#7B78A2"/>
<path d="M295.5 194C300.471 194 304.5 189.971 304.5 185C304.5 180.029 300.471 176 295.5 176C290.529 176 286.5 180.029 286.5 185C286.5 189.971 290.529 194 295.5 194Z" fill="#FEFEFE" fill-opacity="0.8"/>
<path d="M90.5623 119.643C98.114 119.643 104.236 113.521 104.236 105.969C104.236 98.4178 98.114 92.2959 90.5623 92.2959C83.0107 92.2959 76.8889 98.4178 76.8889 105.969C76.8889 113.521 83.0107 119.643 90.5623 119.643Z" fill="#F2F2F2"/>
<path d="M230.46 32.8164C238.012 32.8164 244.134 26.6945 244.134 19.1429C244.134 11.5912 238.012 5.46942 230.46 5.46942C222.909 5.46942 216.787 11.5912 216.787 19.1429C216.787 26.6945 222.909 32.8164 230.46 32.8164Z" fill="#7B78A2"/>
<path d="M159.562 78.6429C167.114 78.6429 173.236 72.5211 173.236 64.9694C173.236 57.4178 167.114 51.2959 159.562 51.2959C152.011 51.2959 145.889 57.4178 145.889 64.9694C145.889 72.5211 152.011 78.6429 159.562 78.6429Z" fill="#FED566"/>
</svg>
