<!-- Generator: Adobe Illustrator 24.2.0, SVG Export Plug-In  -->
<svg version="1.1" xmlns="http://www.w3.org/2000/svg" xmlns:xlink="http://www.w3.org/1999/xlink" x="0px" y="0px" width="96px"
	 height="96px" viewBox="0 0 96 96" style="overflow:visible;enable-background:new 0 0 96 96;" xml:space="preserve">
<style type="text/css">
	.st0{fill:#ffffff;}
</style>
<defs>
</defs>
<path class="st0" d="M73.7,31.5c0,12,0,24,0,36c0,3.7,1.3,4.9,4.9,4.9c2.8,0,14.5,0,17.3,0v1.4c-2.8,0-14.6,0-17.5,0
	c-3.5,0-4.8,1.3-4.8,4.8c0,2.8,0,14.6,0,17.3h-1.4c0-2.7,0-14.5,0-17.2c0-3.7-1.3-4.9-4.9-4.9c-12,0-24,0-36,0
	c-3.7,0-4.9,1.3-4.9,4.9c0,2.7,0,14.5,0,17.2h-1.4c0-2.7,0-14.5,0-17.2c0-3.7-1.3-4.9-4.9-4.9c-3.7,0-16.4,0-20.1,0v-1.4
	c3.7,0,16.4,0,20.1,0c3.7,0,4.9-1.3,4.9-4.9c0-12,0-24,0-36c0-3.7-1.3-4.9-4.9-4.9c-3.7,0-16.4,0-20.1,0v-1.4c3.8,0,16.6,0,20.4,0
	c3.5,0,4.7-1.3,4.7-4.8c0-3.8,0-16.6,0-20.4h1.4c0,3.7,0,16.4,0,20.1c0,3.9,1.2,5.1,5,5.1c5.9,0,11.8,0,17.7,0c6,0,12,0,18,0
	c3.9,0,5.1-1.2,5.1-5c0-3.7,0-16.5,0-20.2h1.4c0,3.8,0,16.5,0,20.3c0,3.7,1.3,4.9,4.9,4.9c2.8,0,14.5,0,17.3,0v1.4
	c-2.8,0-14.5,0-17.3,0C75,26.6,73.7,27.9,73.7,31.5z M72.4,49.9c0-6.1,0-12.2,0-18.3c0-3.7-1.3-4.9-4.9-4.9c-12,0-24,0-36,0
	c-3.7,0-4.9,1.3-4.9,4.9c0,12,0,24,0,36c0,3.7,1.3,4.9,4.9,4.9c12,0,24,0,36,0c3.7,0,4.9-1.3,4.9-4.9C72.4,61.7,72.4,55.8,72.4,49.9
	z"/>
</svg>
