<svg width="525" height="383" viewBox="0 0 525 383" fill="none" xmlns="http://www.w3.org/2000/svg">
<path d="M0 348V365.5C0 375.164 12.2612 383 27.3876 383H497.612C512.739 383 525 375.164 525 365.5V348H0Z" fill="#F9F9F9" fill-opacity="0.89"/>
<path d="M525 26.0599C525 19.1484 522.114 12.5199 516.978 7.63277C511.842 2.74559 504.876 0 497.612 0H27.3876C20.124 0 13.1578 2.74559 8.02167 7.63277C2.88549 12.5199 0 19.1484 0 26.0599V348H525V26.0599Z" fill="#FEFEFE" fill-opacity="0.8"/>
<path d="M263 25.0317C265.761 25.0317 268 22.7932 268 20.0317C268 17.2703 265.761 15.0317 263 15.0317C260.239 15.0317 258 17.2703 258 20.0317C258 22.7932 260.239 25.0317 263 25.0317Z" fill="white"/>
</svg>
