<svg width="157" height="436" viewBox="0 0 157 436" fill="none" xmlns="http://www.w3.org/2000/svg">
<g id="lady">
<g id="legs">
<path id="Vector" d="M57.3098 253.669V273.809C57.3098 274.683 57.3098 275.553 57.3098 276.419C57.1034 283.943 56.4354 291.447 55.3098 298.889C55.042 300.707 54.9983 302.551 55.1798 304.379C55.8798 311.229 54.1798 337.379 54.1798 337.379L51.1798 371.249C51.1798 371.249 52.9298 389.669 52.1798 392.249C51.9812 393.307 51.9174 394.386 51.9899 395.459C52.0899 398.459 52.6098 402.309 52.7798 403.459V403.809L52.6699 403.889L37.9998 415.079C40.3398 412.949 40.9398 407.989 40.9298 403.389C40.9298 402.889 40.9298 402.389 40.9298 401.889C40.9298 397.589 41.0965 393.289 41.4298 388.989C41.9098 381.919 39.0898 371.089 37.0298 364.349C34.3998 355.759 31.7599 305.569 33.1699 302.939C34.5799 300.309 36.2501 293.029 34.5001 289.169C33.4701 286.819 35.1002 279.809 34.5002 273.809C34.1202 270.169 33.1697 265.169 33.1697 265.169L57.3098 253.669Z" fill="#EDDFE1"/>
<path id="Vector_2" d="M108.15 255.409V275.549C108.15 276.789 108.15 278.039 108.15 279.279C107.922 286.427 107.278 293.556 106.22 300.629C105.952 302.447 105.908 304.291 106.09 306.119C106.79 312.969 105.09 339.119 105.09 339.119L102.09 372.989C102.09 372.989 103.85 391.409 103.15 393.989C102.947 395.043 102.883 396.119 102.96 397.189C103.06 400.189 103.59 404.099 103.75 405.189C103.75 405.409 103.8 405.519 103.8 405.519L103.69 405.599L89.0001 416.789C91.2701 414.609 91.86 409.709 91.85 405.169C91.85 404.669 91.85 404.169 91.85 403.659C91.85 399.359 92.0501 395.059 92.3401 390.759C92.8101 383.689 90.0001 372.869 87.9401 366.129C85.3001 357.539 82.6701 307.349 84.0801 304.719C85.4901 302.089 83.9001 295.239 82.1501 291.379C81.5201 290.019 80.9201 286.709 80.4001 283.029C79.4701 276.349 78.8101 268.399 78.8101 268.399L108.15 255.409Z" fill="#EDDFE1"/>
<path id="Vector_3" d="M52.5399 410.889C50.9861 414.452 50.2024 418.303 50.2399 422.189C50.3059 425.384 49.493 428.535 47.8899 431.299C47.6658 431.691 47.4081 432.062 47.1199 432.409C47.1199 432.409 39.4299 432.349 36.7399 430.119C36.4347 429.893 36.1823 429.603 35.9999 429.269C34.4599 426.199 38.9999 414.439 38.9999 414.439C41.3799 405.369 46.2199 400.529 46.2199 400.529C54.8499 398.269 52.5399 410.889 52.5399 410.889Z" fill="#656181"/>
<path id="Vector_4" opacity="0.1" d="M47.8903 431.269C47.6661 431.661 47.4084 432.032 47.1202 432.379C47.1202 432.379 39.4302 432.319 36.7402 430.089C38.0602 425.709 42.2903 412.459 44.2603 414.709C46.2303 416.959 47.4203 427.039 47.8903 431.269Z" fill="black"/>
<path id="Vector_5" d="M46.8298 415.559L46.2998 435.419H48.8798C48.8798 435.419 49.2898 417.999 50.4498 415.559C51.6098 413.119 46.8298 415.559 46.8298 415.559Z" fill="#656181"/>
<path id="Vector_6" d="M103.6 406.389C102.038 409.95 101.251 413.801 101.29 417.689C101.356 420.884 100.543 424.035 98.94 426.799C98.7126 427.189 98.4551 427.56 98.17 427.909C98.17 427.909 90.48 427.849 87.79 425.619C87.4936 425.385 87.2486 425.092 87.07 424.759C85.54 421.689 90.07 409.929 90.07 409.929C92.45 400.859 97.29 396.019 97.29 396.019C105.9 393.789 103.6 406.389 103.6 406.389Z" fill="#656181"/>
<path id="Vector_7" opacity="0.1" d="M98.9401 426.799C98.7126 427.189 98.4552 427.56 98.17 427.909C98.17 427.909 90.48 427.849 87.79 425.619C89.11 421.239 93.3401 407.979 95.3101 410.229C97.2801 412.479 98.4701 422.539 98.9401 426.799Z" fill="black"/>
<path id="Vector_8" d="M97.8901 411.059L97.3501 430.909H99.9301C99.9301 430.909 100.34 413.499 101.5 411.059C102.66 408.619 97.8901 411.059 97.8901 411.059Z" fill="#656181"/>
</g>
<path id="face" d="M80.561 52.7914C94.1257 52.7914 105.122 41.795 105.122 28.2303C105.122 14.6657 94.1257 3.66931 80.561 3.66931C66.9964 3.66931 56 14.6657 56 28.2303C56 41.795 66.9964 52.7914 80.561 52.7914Z" fill="#EDDFE1"/>
<g id="hands">
<path id="Vector_9" d="M3.04254 216.869C10.9425 221.089 17.9625 191.609 17.9625 191.609L18.2625 187.479L18.8325 179.669L9.18256 180.899C9.32825 182.586 9.32825 184.282 9.18256 185.969C9.01256 187.969 8.52256 190.059 7.37256 190.899C4.80256 192.839 -4.84746 212.659 3.04254 216.869Z" fill="#EDDFE1"/>
<path id="Vector_10" d="M140.79 219.869C132.89 224.089 125.87 194.609 125.87 194.609L125.57 190.479L125 182.669L134.65 183.899C134.504 185.586 134.504 187.282 134.65 188.969C134.82 190.969 135.31 193.059 136.46 193.899C139.03 195.839 148.68 215.659 140.79 219.869Z" fill="#EDDFE1"/>
</g>
<g id="top">
<path id="Vector_11" d="M51 140.169L42.3266 126.787L37.4542 104.816C36.2236 99.3752 36.2954 93.7208 37.664 88.3132C39.0325 82.9057 41.659 77.8978 45.3295 73.6976C48.9005 69.5184 53.4089 66.2425 58.4868 64.137C63.5647 62.0316 69.0684 61.1562 74.549 61.5824C74.9027 61.6097 75.2577 61.6393 75.6132 61.6712C80.296 62.0928 84.8458 63.4528 88.9917 65.6704C93.1376 67.8879 96.7946 70.9175 99.7446 74.5785C102.756 78.26 104.996 82.5103 106.33 87.0758C107.664 91.6414 108.065 96.4288 107.509 101.153L97.5 139.169L51 140.169Z" fill="url(#paint0_linear)"/>
<path id="Vector_12" opacity="0.99" d="M24 192.169C23.3662 192.169 22.8996 191.482 22.321 191.223L11.8002 186.51C10.7881 186.058 8.95114 184.682 8.5 183.669C8.04886 182.657 2.15925 174.724 2.50007 173.669L33.8239 121.669V84.9059C34.0663 83.4385 35.204 80.9257 36 79.6693C36.796 78.4129 38.2768 77.0154 39.5 76.1693C40.7232 75.3232 41.0612 76.1548 42.5177 75.8533C43.9741 75.5517 45.4763 75.5462 46.9349 75.837C48.3935 76.1279 49.7788 76.7091 51.0082 77.5462C52.2376 78.3833 53.2861 79.4591 54.0912 80.7096C54.8964 81.9602 55.4418 83.3599 55.695 84.8256C55.9483 86.2912 55.904 87.7927 55.5651 89.2409L45 126.669L30.0001 185.669C29.7191 186.592 29.2402 193.095 28.465 193.669C27.6899 194.243 24.9645 192.17 24 192.169Z" fill="url(#paint1_linear)"/>
<path id="Vector_13" opacity="0.9" d="M124.522 191.616C123.558 191.616 122.775 192.743 122 192.169C121.657 194.106 117.281 194.092 117 193.169L106.165 132.169L93.1171 89.2409C92.7781 87.7926 92.7339 86.291 92.987 84.8254C93.2402 83.3597 93.7856 81.96 94.5908 80.7094C95.396 79.4588 96.4444 78.383 97.6739 77.5459C98.9033 76.7088 100.289 76.1275 101.747 75.8367C103.206 75.5458 104.708 75.5514 106.165 75.8529C107.621 76.1545 109.002 76.7459 110.225 77.5921C111.448 78.4382 112.489 79.5217 113.285 80.7782C114.081 82.0346 114.616 83.4384 114.858 84.9059L117 128.669L142.5 182.669C142.841 183.724 139.606 183.223 139.155 184.236C138.704 185.248 137.894 186.058 136.882 186.51L126.361 191.223C125.783 191.482 125.156 191.616 124.522 191.616Z" fill="url(#paint2_linear)"/>
<path id="Vector 1" opacity="0.8" d="M34 128.169L5.5 176.669L4.5 177.669L6 179.669L34 128.169Z" fill="white"/>
<path id="Vector 2" opacity="0.8" d="M33.1222 130.021L7.62209 180.164L6.6847 181.223L8.30347 183.128L33.1222 130.021Z" fill="white"/>
<path id="Vector 3" opacity="0.9" d="M31.73 131.894L9.75252 183.678L8.99967 184.669L11.0001 186.17L31.73 131.894Z" fill="white" fill-opacity="0.9"/>
<path id="Vector 4" opacity="0.9" d="M116.673 131.405L130.974 185.811L131.5 188.669L133.5 187.669L116.673 131.405Z" fill="white" fill-opacity="0.9"/>
<path id="Vector 5" opacity="0.9" d="M117 132.669L127.144 187.217L127.386 190.113L129.475 189.315L117 132.669Z" fill="white" fill-opacity="0.9"/>
<path id="Vector 6" opacity="0.9" d="M117 131.169L134.874 184.256L135.796 187.011L137.636 185.74L117 131.169Z" fill="white" fill-opacity="0.9"/>
</g>
<path id="hair" d="M58.3209 12.0161C61.0757 5.10617 66.1744 -2.2876 73.0003 0.669279H75.5003C79.0003 0.669279 88.3868 1.80912 93.0003 5.66928C98.6594 12.4123 101.674 13.6693 105.5 28.6693C107.793 37.6605 107.003 43.1693 107.003 58.2782C106.636 61.8525 107.003 63.6693 107.841 71.6693C109.5 77.6693 110.877 79.8284 113.5 85.2131C115.25 88.805 116.545 88.9551 113.5 91.5425C110.456 94.1299 111.319 94.1372 107.401 94.9188C87.6816 98.8244 81 82.1693 66.0003 78.6693C53.5 78.6693 43.0578 78.2147 41 76.6693C41.7924 71.8419 46.961 68.3512 49.5848 64.2224C51.9691 60.4706 54.3873 55.8954 55.5003 53.6693C57.0003 49.1693 67.8551 42.2967 68 37.6693C68.1449 33.0419 59.0201 30.2314 58.0749 25.6993C57.1296 21.1671 56.6065 16.3166 58.3209 12.0161Z" fill="#72708B"/>
<g id="skirt">
<path id="Vector_14" d="M86.4655 378.169H96.5C96.5 378.169 103.666 378.953 104.5 378.169C105.334 377.385 112.927 379.312 113 378.169L106.94 345.432C111.753 268.024 116.73 187.979 100.334 152.149L97.9995 138.669H50.4995L45.8682 153.044C30.8504 182.179 31.3533 256.549 31.8396 328.471L31.8396 328.471C31.8943 336.547 24.4659 370.154 24.4996 378.169C24.5075 379.358 33.6576 377.331 34.5 378.169C35.3424 379.008 34.5 384.669 51 377.669L51.5917 377.867C55.1182 379.042 58.9137 379.147 62.5 378.169H75.5H81C81.0992 379.292 84.5 375.169 86.4655 355.916C84.3469 376.669 84.1975 375.612 86.4655 378.169Z" fill="url(#paint3_linear)"/>
<g id="Group 6">
<path id="Vector_15" d="M56.2094 139.452C54.9901 140.956 52.4591 141.114 52.4591 141.114C52.4591 141.114 51.905 138.834 53.1243 137.331C54.3435 135.828 56.8745 135.669 56.8745 135.669C56.8745 135.669 57.4287 137.949 56.2094 139.452Z" fill="#A4B4DB"/>
<path id="Vector_16" d="M50.5272 139.927C51.34 141.001 53.0274 141.114 53.0274 141.114C53.0274 141.114 53.3968 139.486 52.5839 138.412C51.7711 137.338 50.0838 137.225 50.0838 137.225C50.0838 137.225 49.7143 138.853 50.5272 139.927Z" fill="#A4B4DB"/>
</g>
<g id="Group 5">
<path id="Vector_17" d="M63.2094 139.452C61.9901 140.956 59.4591 141.114 59.4591 141.114C59.4591 141.114 58.905 138.834 60.1243 137.331C61.3435 135.828 63.8745 135.669 63.8745 135.669C63.8745 135.669 64.4287 137.949 63.2094 139.452Z" fill="#A4B4DB"/>
<path id="Vector_18" d="M57.5272 139.927C58.34 141.001 60.0274 141.114 60.0274 141.114C60.0274 141.114 60.3968 139.486 59.5839 138.412C58.7711 137.338 57.0838 137.225 57.0838 137.225C57.0838 137.225 56.7143 138.853 57.5272 139.927Z" fill="#A4B4DB"/>
</g>
<g id="Group 4">
<path id="Vector_19" d="M70.2094 139.452C68.9901 140.956 66.4591 141.114 66.4591 141.114C66.4591 141.114 65.905 138.834 67.1243 137.331C68.3435 135.828 70.8745 135.669 70.8745 135.669C70.8745 135.669 71.4287 137.949 70.2094 139.452Z" fill="#A4B4DB"/>
<path id="Vector_20" d="M64.5272 139.927C65.34 141.001 67.0274 141.114 67.0274 141.114C67.0274 141.114 67.3968 139.486 66.5839 138.412C65.7711 137.338 64.0838 137.225 64.0838 137.225C64.0838 137.225 63.7143 138.853 64.5272 139.927Z" fill="#A4B4DB"/>
</g>
<g id="Group 7">
<path id="Vector_21" d="M76.2094 139.452C74.9901 140.956 72.4591 141.114 72.4591 141.114C72.4591 141.114 71.905 138.834 73.1243 137.331C74.3435 135.828 76.8745 135.669 76.8745 135.669C76.8745 135.669 77.4287 137.949 76.2094 139.452Z" fill="#A4B4DB"/>
<path id="Vector_22" d="M70.5272 139.927C71.34 141.001 73.0274 141.114 73.0274 141.114C73.0274 141.114 73.3968 139.486 72.5839 138.412C71.7711 137.338 70.0838 137.225 70.0838 137.225C70.0838 137.225 69.7143 138.853 70.5272 139.927Z" fill="#A4B4DB"/>
</g>
<g id="Group 8">
<path id="Vector_23" d="M83.2094 139.452C81.9901 140.956 79.4591 141.114 79.4591 141.114C79.4591 141.114 78.905 138.834 80.1243 137.331C81.3435 135.828 83.8745 135.669 83.8745 135.669C83.8745 135.669 84.4287 137.949 83.2094 139.452Z" fill="#A5B4DB"/>
<path id="Vector_24" d="M77.5272 139.927C78.34 141.001 80.0274 141.114 80.0274 141.114C80.0274 141.114 80.3968 139.486 79.5839 138.412C78.7711 137.338 77.0838 137.225 77.0838 137.225C77.0838 137.225 76.7143 138.853 77.5272 139.927Z" fill="#A5B4DB"/>
</g>
<g id="Group 9">
<path id="Vector_25" d="M90.2094 138.452C88.9901 139.956 86.4591 140.114 86.4591 140.114C86.4591 140.114 85.905 137.834 87.1243 136.331C88.3435 134.828 90.8745 134.669 90.8745 134.669C90.8745 134.669 91.4287 136.949 90.2094 138.452Z" fill="#A4B4DB"/>
<path id="Vector_26" d="M84.5272 138.927C85.34 140.001 87.0274 140.114 87.0274 140.114C87.0274 140.114 87.3968 138.486 86.5839 137.412C85.7711 136.338 84.0838 136.225 84.0838 136.225C84.0838 136.225 83.7143 137.853 84.5272 138.927Z" fill="#A4B4DB"/>
</g>
<g id="Group 10">
<path id="Vector_27" d="M97.2094 139.452C95.9901 140.956 93.4591 141.114 93.4591 141.114C93.4591 141.114 92.905 138.834 94.1243 137.331C95.3435 135.828 97.8745 135.669 97.8745 135.669C97.8745 135.669 98.4287 137.949 97.2094 139.452Z" fill="#A4B4DB"/>
<path id="Vector_28" d="M91.5272 139.927C92.34 141.001 94.0274 141.114 94.0274 141.114C94.0274 141.114 94.3968 139.486 93.5839 138.412C92.7711 137.338 91.0838 137.225 91.0838 137.225C91.0838 137.225 90.7143 138.853 91.5272 139.927Z" fill="#A4B4DB"/>
</g>
</g>
<g id="hair_clip">
<path id="Ellipse 4" d="M89.7167 29.0598C89.8353 29.4247 89.7066 29.8956 89.2722 30.4636C88.8423 31.0256 88.1425 31.6417 87.2164 32.2725C85.3665 33.5326 82.6527 34.8248 79.514 35.8447C76.3753 36.8645 73.4202 37.4142 71.183 37.4821C70.063 37.5161 69.1346 37.429 68.4565 37.227C67.7712 37.0228 67.3903 36.7175 67.2718 36.3526C67.1532 35.9877 67.2819 35.5168 67.7163 34.9488C68.1462 34.3868 68.846 33.7706 69.7721 33.1398C71.622 31.8798 74.3357 30.5875 77.4745 29.5677C80.6132 28.5479 83.5683 27.9982 85.8055 27.9303C86.9255 27.8962 87.8538 27.9834 88.532 28.1854C89.2173 28.3896 89.5981 28.6949 89.7167 29.0598Z" fill="#E9E2F0" stroke="#DDC7CA" stroke-width="0.4"/>
<ellipse id="Ellipse 5" cx="72.7844" cy="34.9169" rx="1.23919" ry="1.96062" transform="rotate(-18 72.7844 34.9169)" fill="#F7C6B5"/>
<ellipse id="Ellipse 10" cx="70.2351" cy="35.4033" rx="0.789645" ry="1.56668" transform="rotate(-18 70.2351 35.4033)" fill="#FED566"/>
<ellipse id="Ellipse 6" cx="75.1423" cy="34.3908" rx="0.685347" ry="1.58734" transform="rotate(-18 75.1423 34.3908)" fill="#FFF1F7"/>
<ellipse id="Ellipse 7" cx="76.7844" cy="32.9169" rx="1.23919" ry="1.96062" transform="rotate(-18 76.7844 32.9169)" fill="#CDB1D1" fill-opacity="0.45"/>
<ellipse id="Ellipse 8" cx="79.2153" cy="32.3008" rx="0.805511" ry="1.45379" transform="rotate(-18 79.2153 32.3008)" fill="#FFF1F7"/>
<ellipse id="Ellipse 9" cx="81.2153" cy="32.3008" rx="0.805511" ry="1.45379" transform="rotate(-18 81.2153 32.3008)" fill="#FED566"/>
<ellipse id="Ellipse 11" cx="83.2153" cy="31.3008" rx="0.805511" ry="1.45379" transform="rotate(-18 83.2153 31.3008)" fill="#FFF1F7"/>
</g>
</g>
<defs>
<linearGradient id="paint0_linear" x1="72" y1="104.669" x2="72" y2="155.169" gradientUnits="userSpaceOnUse">
<stop stop-color="#FBEEF5"/>
<stop offset="1" stop-color="#C0D0EA"/>
</linearGradient>
<linearGradient id="paint1_linear" x1="38" y1="88.1693" x2="26" y2="162.169" gradientUnits="userSpaceOnUse">
<stop stop-color="#FDEFF5"/>
<stop offset="1" stop-color="#E1E1F0"/>
</linearGradient>
<linearGradient id="paint2_linear" x1="106" y1="110.669" x2="143" y2="226.169" gradientUnits="userSpaceOnUse">
<stop stop-color="#F7ECF4"/>
<stop offset="0.358864" stop-color="#EFE8F3"/>
<stop offset="1" stop-color="#E0E1F0"/>
</linearGradient>
<linearGradient id="paint3_linear" x1="121.5" y1="259.669" x2="46.5" y2="304.169" gradientUnits="userSpaceOnUse">
<stop stop-color="#A3B4DB"/>
<stop offset="1" stop-color="#C4C1DC"/>
</linearGradient>
</defs>
</svg>
