<?xml version="1.0" encoding="UTF-8"?>
<svg width="127px" height="39px" viewBox="0 0 127 39" version="1.1" xmlns="http://www.w3.org/2000/svg" xmlns:xlink="http://www.w3.org/1999/xlink">
    <title>グループ_8</title>
    <g id="profile-website-design" stroke="none" stroke-width="1" fill="none" fill-rule="evenodd">
        <g id="グループ_8" fill-rule="nonzero">
            <path d="M126.85,38.412 C123.625,37.491 120.475,36.569 119.561,36.229 C117.492,35.459 120.99,28.974 111.073,26.918 C101.156,24.862 96.393,25.987 96.393,25.987 C96.393,25.987 101.393,17.887 96.273,12.187 C91.153,6.487 85.511,6.558 85.511,6.558 C85.511,6.558 83.087,-1.042 70.158,0.126 C57.229,1.294 60.078,10.683 57.806,14.363 C55.534,18.043 49.643,14.406 44.106,17.6 C38.569,20.794 42.255,23.066 37.914,25.981 C33.573,28.896 30.769,27.67 27.792,28.373 C24.815,29.076 24.955,29.673 22.258,31.568 C19.561,33.463 17.917,34.48 11.368,36.029 C8.2,36.777 3.751,37.681 -0.002,38.417 L126.85,38.412 Z" id="パス_12" fill="#F9F9F9"></path>
            <path d="M112.044,38.408 C111.725,36.108 110.983,32.868 104.49,31.521 C94.571,29.465 89.808,30.59 89.808,30.59 C89.808,30.59 94.808,22.49 89.69,16.79 C84.572,11.09 78.928,11.161 78.928,11.161 C78.928,11.161 76.502,3.561 63.575,4.729 C62.6627919,4.81076459 61.7566561,4.95004163 60.862,5.146 C58.696,8.452 59.162,12.694 57.806,14.896 C56.646,16.774 54.546,16.747 52.033,16.696 C51.8901628,17.4929692 51.6161096,18.2607236 51.222,18.968 C49.434,21.868 45.404,20.23 41.071,20.959 C40.11,22.843 40.871,24.532 37.917,26.515 C36.565912,27.4603063 35.0264054,28.1023075 33.404,28.397 C32.9259832,29.3010643 32.2107076,30.0578252 31.335,30.586 C26.992,33.498 24.188,32.275 21.211,32.978 C21.077,33.011 20.955,33.043 20.833,33.078 C19.7893957,33.7582205 18.6768975,34.3263689 17.514,34.773 C17.053,35.149 16.498,35.602 15.679,36.173 C14.5087235,37.0400289 13.25524,37.7887023 11.937,38.408 L112.044,38.408 Z" id="パス_13" fill="#ECECEC"></path>
            <path d="M73.059,28.616 C74.28,30.266 73.126,33.589 74.038,33.928 C74.95,34.267 79.025,32.747 80.171,35.249 C80.5869799,36.2570793 80.8388356,37.3252714 80.917,38.413 L85.469,38.413 C84.9659857,37.7499692 84.7291366,36.9227811 84.805,36.094 C85.049,32.432 82.281,28.929 79.655,29.55 C77.029,30.171 76.609,27.221 74.075,25.88 C71.541,24.539 67.202,26.118 67.202,26.118 C67.202,26.118 71.837,26.963 73.059,28.616 Z" id="パス_14" fill="#F9F9F9"></path>
        </g>
    </g>
</svg>